<svg width="284" height="57" viewBox="0 0 284 57" fill="none" xmlns="http://www.w3.org/2000/svg">
<path d="M122.607 45.6067C120.477 45.6067 118.666 45.4115 117.176 45.021C115.685 44.595 114.123 43.9738 112.49 43.1574L111.957 34.6378H112.862L115.631 40.7612C116.909 41.7552 118.134 42.4651 119.305 42.8911C120.477 43.2816 121.666 43.4768 122.873 43.4768C125.109 43.4768 126.813 42.8911 127.985 41.7197C129.192 40.5482 129.795 38.9331 129.795 36.8742C129.795 35.2768 129.422 34.0166 128.677 33.0936C127.931 32.1707 126.867 31.3542 125.482 30.6443C124.133 29.9343 122.536 29.1178 120.69 28.1949C119.057 27.3784 117.672 26.562 116.537 25.7455C115.436 24.9291 114.602 23.9884 114.034 22.9234C113.466 21.8585 113.182 20.5273 113.182 18.9299C113.182 17.7584 113.466 16.6047 114.034 15.4688C114.602 14.3329 115.365 13.3212 116.324 12.4337C117.318 11.5108 118.418 10.7831 119.625 10.2506C120.867 9.68261 122.145 9.39863 123.459 9.39863C125.056 9.39863 126.529 9.59387 127.878 9.98435C129.227 10.3748 130.612 10.925 132.031 11.635L132.564 19.9416H131.659L129.316 14.0844C128.215 13.1969 127.204 12.558 126.281 12.1675C125.393 11.777 124.364 11.5818 123.192 11.5818C121.347 11.5818 119.891 12.1497 118.826 13.2857C117.761 14.3861 117.229 15.7705 117.229 17.439C117.229 18.7169 117.477 19.7818 117.974 20.6338C118.507 21.4857 119.305 22.2667 120.37 22.9767C121.435 23.6866 122.784 24.4498 124.417 25.2663C126.547 26.2957 128.304 27.2719 129.689 28.1949C131.073 29.1178 132.102 30.1828 132.777 31.3897C133.451 32.5612 133.789 34.0521 133.789 35.8625C133.789 37.3889 133.451 38.7556 132.777 39.9625C132.102 41.1695 131.215 42.1989 130.115 43.0509C129.014 43.8673 127.807 44.5063 126.494 44.9678C125.18 45.3937 123.885 45.6067 122.607 45.6067ZM137.377 45.0743V44.2223L140.732 42.8911V9.77136L137.271 7.69472V7.16225L143.926 5.13885H144.352V24.4676H144.512C145.861 23.1187 147.139 22.1425 148.346 21.539C149.588 20.9 150.955 20.5805 152.446 20.5805C154.576 20.5805 156.333 21.1485 157.717 22.2845C159.102 23.3849 159.794 25.0356 159.794 27.2364V42.8911L163.149 44.2223V45.0743H152.393V44.2223L156.173 42.9444V29.3131C156.173 27.5027 155.641 26.136 154.576 25.213C153.546 24.2546 152.18 23.7754 150.476 23.7754C149.482 23.7754 148.381 23.9706 147.174 24.3611C146.003 24.7516 145.062 25.3373 144.352 26.1183V42.9444L148.133 44.2223V45.0743H137.377ZM175.093 45.6067C172.998 45.6067 171.259 45.0565 169.874 43.9561C168.526 42.8201 167.851 41.1517 167.851 38.9508V23.2962L164.337 21.965V21.113H171.472V36.8742C171.472 38.6846 171.987 40.069 173.016 41.0275C174.045 41.9504 175.394 42.4119 177.063 42.4119C178.021 42.4119 179.086 42.2167 180.258 41.8262C181.429 41.4357 182.37 40.85 183.08 40.069V23.2962L179.086 21.965V21.113H186.701V42.9444L190.481 44.2223V45.0743H183.08V41.7729H182.867C181.553 43.0864 180.293 44.0626 179.086 44.7015C177.879 45.305 176.548 45.6067 175.093 45.6067ZM228.332 45.0743V44.2223L231.687 42.8911V9.29213L228.492 7.53498V7.0025L234.881 5.13885H235.307V42.8911L238.822 44.2223V45.0743H228.332ZM191.964 23.3494V21.113H196.33V19.0896C196.33 17.7052 196.65 16.232 197.289 14.6701C197.928 13.0727 198.762 11.564 199.791 10.1441C200.821 8.72416 201.957 7.57047 203.199 6.68302C204.477 5.79557 205.755 5.35184 207.033 5.35184C207.921 5.35184 208.542 5.49383 208.897 5.77782C209.252 6.0618 209.429 6.38129 209.429 6.73627C209.429 6.94926 209.394 7.23324 209.323 7.58822L208.79 9.61162L203.519 8.28044C202.454 9.20339 201.584 10.5523 200.91 12.3272C200.271 14.0666 199.951 16.0723 199.951 18.3442V21.113H214.275V19.0896C214.275 17.7052 214.576 16.232 215.18 14.6701C215.819 13.0727 216.653 11.564 217.683 10.1441C218.712 8.72416 219.83 7.57047 221.037 6.68302C222.28 5.79557 223.504 5.35184 224.711 5.35184C225.563 5.35184 226.167 5.49383 226.522 5.77782C226.912 6.0618 227.107 6.36354 227.107 6.68302C227.107 6.93151 227.054 7.23324 226.948 7.58822L226.468 9.55837L221.41 8.28044C220.345 9.16789 219.493 10.4991 218.854 12.274C218.215 14.0489 217.896 16.0723 217.896 18.3442V21.113H224.924V23.3494H217.896V42.9444L221.783 44.2223V45.0743H210.92V44.2223L214.275 42.8911V23.3494H199.951V42.9444L203.838 44.2223V45.0743H192.976V44.2223L196.33 42.8911V23.3494H191.964ZM252.98 45.6067C250.601 45.6067 248.56 45.1098 246.856 44.1158C245.188 43.1219 243.91 41.7552 243.022 40.0158C242.135 38.2409 241.691 36.1997 241.691 33.8923C241.691 31.372 242.206 29.1178 243.235 27.1299C244.265 25.1066 245.631 23.5091 247.335 22.3377C249.039 21.1663 250.885 20.5805 252.873 20.5805C255.677 20.5805 257.878 21.539 259.476 23.4559C261.073 25.3728 261.925 28.0706 262.032 31.5495L261.819 31.7625H245.259C245.259 31.9044 245.259 32.0464 245.259 32.1884C245.259 34.0343 245.578 35.7382 246.217 37.3002C246.856 38.8266 247.868 40.0513 249.252 40.9742C250.637 41.8972 252.429 42.3586 254.63 42.3586C257.186 42.3586 259.6 41.5599 261.872 39.9625H262.032V40.5482C261.215 41.9682 260.026 43.1751 258.464 44.1691C256.902 45.1275 255.074 45.6067 252.98 45.6067ZM252.074 22.4442C250.37 22.4442 248.915 23.1009 247.708 24.4143C246.501 25.6923 245.738 27.5027 245.418 29.8456H258.464C258.074 27.3607 257.364 25.5148 256.334 24.3078C255.305 23.0654 253.885 22.4442 252.074 22.4442ZM265.62 45.0743V44.2223L268.975 42.8911V25.213L265.514 23.4026V22.8169L271.744 20.5805H272.17L272.596 25.639H272.702C274.371 23.7221 275.737 22.4264 276.802 21.752C277.903 21.042 278.932 20.687 279.891 20.687C280.565 20.687 281.115 20.8468 281.541 21.1663C281.967 21.4502 282.18 21.894 282.18 22.4974C282.18 22.6039 282.163 22.7637 282.127 22.9767C282.127 23.1542 282.092 23.3849 282.021 23.6689L281.754 25.213L276.643 24.3078C275.045 25.0533 273.696 26.1892 272.596 27.7157V42.8911L276.483 44.2223V45.0743H265.62Z" fill="#FF0000"/>
<path d="M3.94029 45V7.72695H26.6236V11.401H8.41306V23.9674H23.908V27.5882H8.41306V45H3.94029ZM41.0374 45.639C38.6235 45.639 36.4049 45.1065 34.3815 44.0416C32.3581 42.9411 30.7429 41.3614 29.536 39.3025C28.329 37.2082 27.7256 34.6878 27.7256 31.7414C27.7256 28.9371 28.3113 26.5055 29.4827 24.4466C30.6897 22.3877 32.3048 20.7903 34.3282 19.6543C36.3871 18.5184 38.6945 17.9504 41.2504 17.9504C43.6997 17.9504 45.9361 18.4829 47.9595 19.5478C50.0184 20.6128 51.6691 22.1747 52.9115 24.2336C54.1539 26.2925 54.7752 28.7951 54.7752 31.7414C54.7752 34.4393 54.1894 36.8354 53.018 38.9298C51.8466 41.0242 50.2136 42.6749 48.1192 43.8818C46.0604 45.0532 43.6997 45.639 41.0374 45.639ZM41.0374 41.7519C42.7768 41.7519 44.3387 41.3437 45.7231 40.5272C47.1076 39.6753 48.208 38.5038 49.0245 37.0129C49.8409 35.522 50.2491 33.7648 50.2491 31.7414C50.2491 29.8245 49.8942 28.1206 49.1842 26.6297C48.4742 25.1388 47.4448 23.9674 46.0959 23.1154C44.7469 22.2634 43.114 21.8375 41.1971 21.8375C39.2447 21.8375 37.5941 22.2812 36.2451 23.1686C34.9317 24.0561 33.9377 25.2453 33.2633 26.7362C32.5888 28.2271 32.2516 29.8955 32.2516 31.7414C32.2516 34.0843 32.6776 36.0012 33.5295 37.4921C34.3815 38.9476 35.4819 40.0303 36.8308 40.7402C38.1798 41.4147 39.5819 41.7519 41.0374 41.7519ZM58.8494 45V18.5894H62.8962L63.1624 23.3284C64.0144 21.66 65.2391 20.3465 66.8365 19.3881C68.4339 18.4296 70.2443 17.9504 72.2677 17.9504C75.3915 17.9504 77.8764 18.9089 79.7223 20.8258C81.6037 22.7072 82.5444 25.618 82.5444 29.5583V45H78.0716V30.0375C78.0716 27.3042 77.5037 25.2453 76.3677 23.8609C75.2318 22.4764 73.5279 21.7842 71.256 21.7842C68.9841 21.7842 67.085 22.6184 65.5585 24.2868C64.0676 25.9198 63.3222 28.2626 63.3222 31.3155V45H58.8494ZM97.6795 45C95.2656 45 93.3665 44.4143 91.9821 43.2428C90.5976 42.0714 89.9054 39.9593 89.9054 36.9064V22.3699H85.3262V18.5894H89.9054V12.253H94.3782V18.5894H101.78V22.3699H94.3782V36.9064C94.3782 38.5748 94.7154 39.7108 95.3899 40.3142C96.0643 40.8822 97.2535 41.1662 98.9574 41.1662H101.78V45H97.6795Z" fill="#FF0000"/>
</svg>
