<svg width="295" height="59" viewBox="0 0 295 59" fill="none" xmlns="http://www.w3.org/2000/svg">
<path d="M155.43 54H151.37V53.942L151.138 54L136.87 12.82H141.916L153.4 47.33L164.884 12.82H169.93L155.662 54L155.43 53.942V54ZM171.357 39.21C171.357 36.0007 171.899 33.236 172.981 30.916C174.103 28.596 175.669 26.8173 177.679 25.58C179.729 24.304 182.126 23.666 184.871 23.666C187.501 23.666 189.782 24.304 191.715 25.58C193.649 26.856 195.137 28.6927 196.181 31.09C197.225 33.4487 197.747 36.252 197.747 39.5V39.964H175.649C175.843 43.2507 176.809 45.8607 178.549 47.794C180.289 49.7273 182.532 50.694 185.277 50.694C187.752 50.694 189.705 50.0753 191.135 48.838C192.605 47.6007 193.455 45.8607 193.687 43.618H197.747C197.361 47.1753 196.085 49.9207 193.919 51.854C191.793 53.7873 188.912 54.754 185.277 54.754C182.455 54.754 179.999 54.1353 177.911 52.898C175.823 51.622 174.199 49.824 173.039 47.504C171.918 45.1453 171.357 42.3807 171.357 39.21ZM184.871 27.726C182.397 27.6487 180.367 28.3447 178.781 29.814C177.235 31.2833 176.365 33.3133 176.171 35.904H193.223C193.069 33.468 192.237 31.5153 190.729 30.046C189.221 28.5767 187.269 27.8033 184.871 27.726ZM205.787 54V25H228.813V29.35H210.137V54H205.787ZM246.828 54.812C242.768 54.812 239.52 53.7873 237.084 51.738C234.648 49.6887 233.391 46.924 233.314 43.444H237.664C237.741 45.6867 238.592 47.4847 240.216 48.838C241.84 50.1527 244.005 50.7907 246.712 50.752C248.684 50.7133 250.289 50.288 251.526 49.476C252.802 48.664 253.421 47.6393 253.382 46.402C253.343 45.2807 252.841 44.314 251.874 43.502C250.907 42.69 249.283 41.8973 247.002 41.124L243.348 39.848C240.371 38.804 238.225 37.6827 236.91 36.484C235.634 35.2467 234.957 33.7387 234.88 31.96C234.841 30.336 235.247 28.9053 236.098 27.668C236.949 26.4307 238.147 25.464 239.694 24.768C241.279 24.0333 243.116 23.666 245.204 23.666C248.8 23.6273 251.681 24.536 253.846 26.392C256.011 28.2093 257.133 30.7227 257.21 33.932L252.86 33.99C252.589 32.0567 251.777 30.5293 250.424 29.408C249.071 28.2867 247.369 27.726 245.32 27.726C243.464 27.726 241.975 28.132 240.854 28.944C239.733 29.756 239.191 30.7807 239.23 32.018C239.269 32.8687 239.694 33.6227 240.506 34.28C241.357 34.9373 242.768 35.614 244.74 36.31L248.452 37.586C251.661 38.6687 253.962 39.848 255.354 41.124C256.746 42.3613 257.461 43.908 257.5 45.764C257.577 47.5427 257.171 49.1087 256.282 50.462C255.393 51.8153 254.136 52.8787 252.512 53.652C250.888 54.4253 248.993 54.812 246.828 54.812ZM263.509 39.21C263.509 36.0007 264.051 33.236 265.133 30.916C266.255 28.596 267.821 26.8173 269.831 25.58C271.881 24.304 274.278 23.666 277.023 23.666C279.653 23.666 281.934 24.304 283.867 25.58C285.801 26.856 287.289 28.6927 288.333 31.09C289.377 33.4487 289.899 36.252 289.899 39.5V39.964H267.801C267.995 43.2507 268.961 45.8607 270.701 47.794C272.441 49.7273 274.684 50.694 277.429 50.694C279.904 50.694 281.857 50.0753 283.287 48.838C284.757 47.6007 285.607 45.8607 285.839 43.618H289.899C289.513 47.1753 288.237 49.9207 286.071 51.854C283.945 53.7873 281.064 54.754 277.429 54.754C274.607 54.754 272.151 54.1353 270.063 52.898C267.975 51.622 266.351 49.824 265.191 47.504C264.07 45.1453 263.509 42.3807 263.509 39.21ZM277.023 27.726C274.549 27.6487 272.519 28.3447 270.933 29.814C269.387 31.2833 268.517 33.3133 268.323 35.904H285.375C285.221 33.468 284.389 31.5153 282.881 30.046C281.373 28.5767 279.421 27.8033 277.023 27.726Z" fill="white"/>
<path d="M3.016 53V15.56H37.18V19.772H7.228V32.148H31.304V36.412H7.228V53H3.016ZM46.5221 53C45.3781 53 44.3208 52.7227 43.3501 52.168C42.4141 51.5787 41.6515 50.816 41.0621 49.88C40.5075 48.9093 40.2301 47.852 40.2301 46.708V29.132C40.2301 27.988 40.5075 26.948 41.0621 26.012C41.6515 25.0413 42.4141 24.2787 43.3501 23.724C44.3208 23.1347 45.3781 22.84 46.5221 22.84H64.6181C65.7968 22.84 66.8541 23.1347 67.7901 23.724C68.7608 24.2787 69.5235 25.0413 70.0781 26.012C70.6675 26.948 70.9621 27.988 70.9621 29.132V46.708C70.9621 47.852 70.6675 48.9093 70.0781 49.88C69.5235 50.816 68.7608 51.5787 67.7901 52.168C66.8541 52.7227 65.7968 53 64.6181 53H46.5221ZM46.5221 48.736H64.6181C65.1728 48.736 65.6408 48.5453 66.0221 48.164C66.4381 47.748 66.6461 47.2627 66.6461 46.708V29.132C66.6461 28.5773 66.4381 28.1093 66.0221 27.728C65.6408 27.312 65.1728 27.104 64.6181 27.104H46.5221C45.9675 27.104 45.4821 27.312 45.0661 27.728C44.6848 28.1093 44.4941 28.5773 44.4941 29.132V46.708C44.4941 47.2627 44.6848 47.748 45.0661 48.164C45.4821 48.5453 45.9675 48.736 46.5221 48.736ZM75.6283 53V22.84H100.068C101.212 22.84 102.252 23.1347 103.188 23.724C104.159 24.2787 104.922 25.0413 105.476 26.012C106.066 26.948 106.36 27.988 106.36 29.132V53H102.096V29.132C102.096 28.5773 101.888 28.1093 101.472 27.728C101.091 27.312 100.623 27.104 100.068 27.104H81.9723C81.4176 27.104 80.9323 27.312 80.5163 27.728C80.1003 28.1093 79.8923 28.5773 79.8923 29.132V53H75.6283ZM118.075 53C116.897 53 115.822 52.7227 114.851 52.168C113.915 51.5787 113.17 50.816 112.615 49.88C112.061 48.9093 111.783 47.852 111.783 46.708V12.96H116.047V22.84H129.099V27.104H116.047V46.708C116.047 47.2627 116.238 47.748 116.619 48.164C117.035 48.5453 117.521 48.736 118.075 48.736H129.099V53H118.075Z" fill="white"/>
</svg>
